<svg width="21" height="22" viewBox="0 0 21 22" fill="none" xmlns="http://www.w3.org/2000/svg">
<g clip-path="url(#clip0_33_245)">
<path d="M21 11.47C21 5.67101 16.299 0.970001 10.5 0.970001C4.70101 0.970001 0 5.67101 0 11.47C0 16.7108 3.83968 21.0547 8.85938 21.8424V14.5052H6.19336V11.47H8.85938V9.15672C8.85938 6.52516 10.427 5.07156 12.8254 5.07156C13.9738 5.07156 15.1758 5.27664 15.1758 5.27664V7.86062H13.8518C12.5475 7.86062 12.1406 8.67007 12.1406 9.50125V11.47H15.0527L14.5872 14.5052H12.1406V21.8424C17.1603 21.0547 21 16.7108 21 11.47Z" fill="black"/>
</g>
<defs>
<clipPath id="clip0_33_245">
<rect width="21" height="21" fill="white" transform="translate(0 0.970001)"/>
</clipPath>
</defs>
</svg>
