<svg width="21" height="22" viewBox="0 0 21 22" fill="none" xmlns="http://www.w3.org/2000/svg">
<g clip-path="url(#clip0_33_240)">
<path d="M10.5 2.86082C13.3055 2.86082 13.6377 2.87312 14.741 2.92234C15.7664 2.96746 16.3201 3.13973 16.6893 3.28328C17.1773 3.47195 17.5301 3.70164 17.8951 4.06668C18.2643 4.43582 18.4898 4.78445 18.6785 5.27254C18.8221 5.64168 18.9943 6.19949 19.0395 7.22078C19.0887 8.3282 19.101 8.66043 19.101 11.4618C19.101 14.2673 19.0887 14.5995 19.0395 15.7028C18.9943 16.7282 18.8221 17.2819 18.6785 17.6511C18.4898 18.1391 18.2602 18.4919 17.8951 18.8569C17.526 19.2261 17.1773 19.4516 16.6893 19.6403C16.3201 19.7839 15.7623 19.9561 14.741 20.0012C13.6336 20.0505 13.3014 20.0628 10.5 20.0628C7.69453 20.0628 7.36231 20.0505 6.25899 20.0012C5.23359 19.9561 4.67988 19.7839 4.31074 19.6403C3.82266 19.4516 3.46992 19.222 3.10488 18.8569C2.73574 18.4878 2.51016 18.1391 2.32148 17.6511C2.17793 17.2819 2.00566 16.7241 1.96055 15.7028C1.91133 14.5954 1.89902 14.2632 1.89902 11.4618C1.89902 8.65633 1.91133 8.3241 1.96055 7.22078C2.00566 6.19539 2.17793 5.64168 2.32148 5.27254C2.51016 4.78445 2.73984 4.43172 3.10488 4.06668C3.47402 3.69754 3.82266 3.47195 4.31074 3.28328C4.67988 3.13973 5.2377 2.96746 6.25899 2.92234C7.36231 2.87312 7.69453 2.86082 10.5 2.86082ZM10.5 0.970001C7.64942 0.970001 7.29258 0.982306 6.17285 1.03152C5.05723 1.08074 4.29023 1.26121 3.62578 1.51961C2.93262 1.79031 2.34609 2.14715 1.76367 2.73367C1.17715 3.31609 0.820313 3.90262 0.549609 4.59168C0.291211 5.26023 0.110742 6.02312 0.0615234 7.13875C0.0123047 8.26258 0 8.61941 0 11.47C0 14.3206 0.0123047 14.6774 0.0615234 15.7971C0.110742 16.9128 0.291211 17.6798 0.549609 18.3442C0.820313 19.0374 1.17715 19.6239 1.76367 20.2063C2.34609 20.7887 2.93262 21.1497 3.62168 21.4163C4.29024 21.6747 5.05313 21.8552 6.16875 21.9044C7.28848 21.9536 7.64531 21.9659 10.4959 21.9659C13.3465 21.9659 13.7033 21.9536 14.823 21.9044C15.9387 21.8552 16.7057 21.6747 17.3701 21.4163C18.0592 21.1497 18.6457 20.7887 19.2281 20.2063C19.8105 19.6239 20.1715 19.0374 20.4381 18.3483C20.6965 17.6798 20.877 16.9169 20.9262 15.8013C20.9754 14.6815 20.9877 14.3247 20.9877 11.4741C20.9877 8.62352 20.9754 8.26668 20.9262 7.14695C20.877 6.03133 20.6965 5.26434 20.4381 4.59988C20.1797 3.90262 19.8229 3.31609 19.2363 2.73367C18.6539 2.15125 18.0674 1.79031 17.3783 1.52371C16.7098 1.26531 15.9469 1.08485 14.8313 1.03563C13.7074 0.982306 13.3506 0.970001 10.5 0.970001Z" fill="black"/>
<path d="M10.5 6.07645C7.52227 6.07645 5.10645 8.49227 5.10645 11.47C5.10645 14.4477 7.52227 16.8636 10.5 16.8636C13.4777 16.8636 15.8936 14.4477 15.8936 11.47C15.8936 8.49227 13.4777 6.07645 10.5 6.07645ZM10.5 14.9686C8.56816 14.9686 7.00137 13.4018 7.00137 11.47C7.00137 9.53816 8.56816 7.97137 10.5 7.97137C12.4318 7.97137 13.9986 9.53816 13.9986 11.47C13.9986 13.4018 12.4318 14.9686 10.5 14.9686Z" fill="black"/>
<path d="M17.366 5.86297C17.366 6.56024 16.8 7.12215 16.1068 7.12215C15.4096 7.12215 14.8477 6.55613 14.8477 5.86297C14.8477 5.1657 15.4137 4.60379 16.1068 4.60379C16.8 4.60379 17.366 5.16981 17.366 5.86297Z" fill="black"/>
</g>
<defs>
<clipPath id="clip0_33_240">
<rect width="21" height="21" fill="white" transform="translate(0 0.970001)"/>
</clipPath>
</defs>
</svg>
