<svg width="21" height="22" viewBox="0 0 21 22" fill="none" xmlns="http://www.w3.org/2000/svg">
<g clip-path="url(#clip0_33_237)">
<path d="M19.4455 0.970001H1.55039C0.693164 0.970001 0 1.64676 0 2.48348V20.4524C0 21.2891 0.693164 21.97 1.55039 21.97H19.4455C20.3027 21.97 21 21.2891 21 20.4565V2.48348C21 1.64676 20.3027 0.970001 19.4455 0.970001ZM6.23027 18.8651H3.11309V8.8409H6.23027V18.8651ZM4.67168 7.47508C3.6709 7.47508 2.86289 6.66707 2.86289 5.67039C2.86289 4.67371 3.6709 3.8657 4.67168 3.8657C5.66836 3.8657 6.47637 4.67371 6.47637 5.67039C6.47637 6.66297 5.66836 7.47508 4.67168 7.47508ZM17.8951 18.8651H14.782V13.9925C14.782 12.8317 14.7615 11.3346 13.1619 11.3346C11.5418 11.3346 11.2957 12.602 11.2957 13.9104V18.8651H8.18672V8.8409H11.1727V10.2108H11.2137C11.6279 9.42332 12.6451 8.5907 14.1586 8.5907C17.3127 8.5907 17.8951 10.6661 17.8951 13.3649V18.8651Z" fill="black"/>
</g>
<defs>
<clipPath id="clip0_33_237">
<rect width="21" height="21" fill="white" transform="translate(0 0.970001)"/>
</clipPath>
</defs>
</svg>
