<svg width="145" height="547" viewBox="0 0 145 547" fill="none" xmlns="http://www.w3.org/2000/svg">
<g clip-path="url(#clip0_105_676)">
<path fill-rule="evenodd" clip-rule="evenodd" d="M0 -579.615H1338.46V3983.69H0V-579.615Z" fill="#FFF5ED"/>
<path fill-rule="evenodd" clip-rule="evenodd" d="M-278.893 111.279C-257.588 130.732 -236.471 150.391 -215.544 170.252C-228.256 169.637 -241.113 172.038 -254.514 177.778C-279.25 188.374 -291.157 227.051 -276.429 249.646C-259.824 275.12 -241.574 299.127 -222.344 322.272C-249.036 307.396 -276.243 293.478 -304.65 281.585C-325.293 272.945 -354.664 285.473 -365.256 304.481C-376.759 325.128 -375.289 351.254 -358.66 368.934C-271.952 461.125 -183.014 551.183 -91.9262 639.026C-71.9794 658.263 -37.5456 662.415 -16.976 641.11C2.22714 621.22 6.49628 586.602 -14.8996 565.967C-25.8104 555.443 -36.6901 544.887 -47.5385 534.299C-35.6383 538.3 -23.5764 541.81 -11.3276 544.678C10.9243 549.887 37.346 543.198 49.2778 521.782C61.3704 500.082 58.1581 476.375 42.6831 457.33C39.6362 453.581 36.5522 449.866 33.4496 446.168C47.2134 452.691 61.3741 458.222 76.0758 462.252C98.0015 468.261 125.051 460.226 136.68 439.357C148.42 418.287 146.265 393.137 130.085 374.903C107.458 349.418 84.5436 324.191 61.3463 299.227C62.1716 299.565 62.9859 299.927 63.8103 300.265C83.231 308.178 107.829 297.818 120.081 282.713C131.937 268.098 138.127 241.32 126.106 224.499C97.7729 184.857 64.4489 151.523 29.5606 117.749C27.0463 115.316 24.5414 112.875 22.0373 110.427C40.1883 106.147 56.4395 92.6956 61.204 74.3035C68.5284 46.0039 54.1864 17.1565 26.0099 7.94505C-17.1731 -6.16699 -62.0218 -8.75476 -106.805 -2.45634C-139.385 2.1284 -155.476 41.2049 -144.294 69.4895C-167.038 56.164 -189.774 42.8272 -212.527 29.5278C-235.437 16.137 -264.362 20.7823 -281.152 41.4816C-296.715 60.6611 -298.513 93.3637 -278.893 111.278L-278.893 111.279Z" fill="#F7E1D2"/>
</g>
<defs>
<clipPath id="clip0_105_676">
<rect width="145" height="547" fill="white"/>
</clipPath>
</defs>
</svg>
