<svg width="16" height="10" viewBox="0 0 16 10" fill="none" xmlns="http://www.w3.org/2000/svg">
<path d="M8.04999 0C4.71666 0 1.86999 2.07333 0.716656 5C1.86999 7.92667 4.71666 10 8.04999 10C11.3833 10 14.23 7.92667 15.3833 5C14.23 2.07333 11.3833 0 8.04999 0ZM8.04999 8.33333C6.20999 8.33333 4.71666 6.84 4.71666 5C4.71666 3.16 6.20999 1.66667 8.04999 1.66667C9.88999 1.66667 11.3833 3.16 11.3833 5C11.3833 6.84 9.88999 8.33333 8.04999 8.33333ZM8.04999 3C6.94332 3 6.04999 3.89333 6.04999 5C6.04999 6.10667 6.94332 7 8.04999 7C9.15666 7 10.05 6.10667 10.05 5C10.05 3.89333 9.15666 3 8.04999 3Z" fill="#16192C"/>
</svg>
