<svg width="21" height="22" viewBox="0 0 21 22" fill="none" xmlns="http://www.w3.org/2000/svg">
<g clip-path="url(#clip0_33_230)">
<mask id="mask0_33_230" style="mask-type:luminance" maskUnits="userSpaceOnUse" x="0" y="0" width="21" height="22">
<path d="M21 0.970001H0V21.97H21V0.970001Z" fill="white"/>
</mask>
<g mask="url(#mask0_33_230)">
<path d="M6.60639 20.0014C14.529 20.0014 18.8635 13.436 18.8635 7.74428C18.8635 7.55971 18.8594 7.37104 18.8512 7.18647C19.6944 6.57668 20.4221 5.82137 21 4.95604C20.2147 5.30543 19.3809 5.53361 18.5272 5.6328C19.4261 5.09395 20.0992 4.24744 20.4217 3.2502C19.576 3.75139 18.6511 4.10494 17.6868 4.29569C17.037 3.60527 16.1779 3.14813 15.2422 2.99495C14.3066 2.84177 13.3465 3.00107 12.5105 3.44824C11.6745 3.8954 11.0091 4.60552 10.6171 5.4688C10.2252 6.33208 10.1285 7.30044 10.3421 8.22416C8.62968 8.13823 6.95444 7.69339 5.42498 6.91849C3.89552 6.14358 2.54598 5.05591 1.46385 3.72598C0.91385 4.67424 0.745549 5.79634 0.993152 6.86423C1.24075 7.93212 1.88568 8.86567 2.79686 9.47514C2.1128 9.45342 1.44373 9.26925 0.844922 8.93783V8.99116C0.844309 9.98628 1.18834 10.9509 1.81852 11.7211C2.44871 12.4912 3.32616 13.0194 4.30172 13.2158C3.66805 13.3891 3.00298 13.4144 2.35799 13.2896C2.63327 14.1454 3.16888 14.8939 3.89005 15.4307C4.61122 15.9675 5.48198 16.2657 6.3808 16.2837C4.85487 17.4824 2.9699 18.1325 1.02949 18.1294C0.685376 18.1289 0.341599 18.1078 0 18.0663C1.97125 19.3309 4.26434 20.0026 6.60639 20.0014Z" fill="black"/>
</g>
</g>
<defs>
<clipPath id="clip0_33_230">
<rect width="21" height="21" fill="white" transform="translate(0 0.970001)"/>
</clipPath>
</defs>
</svg>
